0
SECTION
2
HEADER
9
$INSUNITS
70
4
9
$ACADVER
1
AC1014
9
$HANDSEED
5
FFFF
0
ENDSEC
0
SECTION
2
TABLES
0
TABLE
2
VPORT
5
8
100
AcDbSymbolTable
0
ENDTAB
0
TABLE
2
LTYPE
5
5
100
AcDbSymbolTable
0
LTYPE
5
14
100
AcDbSymbolTableRecord
100
AcDbLinetypeTableRecord
2
BYBLOCK
70
0
0
LTYPE
5
15
100
AcDbSymbolTableRecord
100
AcDbLinetypeTableRecord
2
BYLAYER
70
0
0
LTYPE
5
16
100
AcDbSymbolTableRecord
100
AcDbLinetypeTableRecord
2
DASHED
70
0
3
Dashed __ __ __ __ __ __ __ __ __ __ __ __ __ _
72
65
73
2
40
0.75
49
0.5
74
0
49
-0.25
74
0
0
ENDTAB
0
TABLE
2
LAYER
5
2
100
AcDbSymbolTable
70
2
0
LAYER
5
50
100
AcDbSymbolTableRecord
100
AcDbLayerTableRecord
2
0
70
0
62
7
6
CONTINUOUS
0
ENDTAB
0
TABLE
2
STYLE
5
3
100
AcDbSymbolTable
70
1
0
STYLE
5
11
100
AcDbSymbolTableRecord
100
AcDbTextStyleTableRecord
2
STANDARD
70
0
0
ENDTAB
0
TABLE
2
VIEW
5
6
100
AcDbSymbolTable
70
0
0
ENDTAB
0
TABLE
2
UCS
5
7
100
AcDbSymbolTable
70
0
0
ENDTAB
0
TABLE
2
APPID
5
9
100
AcDbSymbolTable
70
2
0
APPID
5
12
100
AcDbSymbolTableRecord
100
AcDbRegAppTableRecord
2
ACAD
70
0
0
ENDTAB
0
TABLE
2
DIMSTYLE
5
A
100
AcDbSymbolTable
70
1
0
ENDTAB
0
TABLE
2
BLOCK_RECORD
5
1
100
AcDbSymbolTable
70
1
0
BLOCK_RECORD
5
1F
100
AcDbSymbolTableRecord
100
AcDbBlockTableRecord
2
*MODEL_SPACE
0
BLOCK_RECORD
5
1B
100
AcDbSymbolTableRecord
100
AcDbBlockTableRecord
2
*PAPER_SPACE
0
ENDTAB
0
ENDSEC
0
SECTION
2
BLOCKS
0
BLOCK
5
20
100
AcDbEntity
100
AcDbBlockBegin
2
*MODEL_SPACE
0
ENDBLK
5
21
100
AcDbEntity
100
AcDbBlockEnd
0
BLOCK
5
1C
100
AcDbEntity
100
AcDbBlockBegin
2
*PAPER_SPACE
0
ENDBLK
5
1D
100
AcDbEntity
100
AcDbBlockEnd
0
ENDSEC
0
SECTION
2
ENTITIES
0
CIRCLE
5
100
100
AcDbEntity
8
0
100
AcDbCircle
10
-26.499997499947305
20
-10.000000261979821
30
0
40
1.100000000000001
210
0
220
-0
230
1
0
CIRCLE
5
101
100
AcDbEntity
8
0
100
AcDbCircle
10
112.99999999829279
20
-1.0000000000000018
30
0
40
1.0999999999999943
210
0
220
-0
230
1
0
LWPOLYLINE
5
102
100
AcDbEntity
8
0
100
AcDbPolyline
90
4
70
1
43
0.0
10
-23.499999874423008
20
-7.0000006172347282
10
-23.499999874423008
20
6.9999993827652727
10
-9.4999998744230183
20
6.9999999916913067
10
-9.4999998744230201
20
-7.0000006172347282
0
LWPOLYLINE
5
103
100
AcDbEntity
8
0
100
AcDbPolyline
90
4
70
1
43
0.0
10
-6.9999999747710913
20
-7.000000025228946
10
-6.9999999747710913
20
6.9999999747710548
10
7.0000000252288892
20
7.000000335278652
10
7.0000000252289931
20
-7.000000025228946
0
LWPOLYLINE
5
104
100
AcDbEntity
8
0
100
AcDbPolyline
90
4
70
1
43
0.0
10
9.5
20
0.99999999999999867
10
9.5
20
15.000000000000002
10
23.500000000000007
20
15.000000000000002
10
23.500000000000007
20
0.99999999999999867
0
LWPOLYLINE
5
105
100
AcDbEntity
8
0
100
AcDbPolyline
90
4
70
1
43
0.0
10
9.5000000000000036
20
17.5
10
9.5000000000000018
20
31.500000000000004
10
23.500000000000007
20
31.500000000000004
10
23.500000000000007
20
17.5
0
LWPOLYLINE
5
106
100
AcDbEntity
8
0
100
AcDbPolyline
90
4
70
1
43
0.0
10
23.500000000000007
20
48.000000000000007
10
9.5000000000000018
20
48.000000000000007
10
9.5000000000000018
20
34
10
23.500000000000007
20
34
0
LWPOLYLINE
5
107
100
AcDbEntity
8
0
100
AcDbPolyline
90
4
70
1
43
0.0
10
9.5000000000000018
20
64.5
10
23.500000000000007
20
64.5
10
23.500000000000007
20
50.500000000000014
10
9.5000000000000018
20
50.500000000000014
0
LWPOLYLINE
5
108
100
AcDbEntity
8
0
100
AcDbPolyline
90
4
70
1
43
0.0
10
26.000000000000007
20
64.5
10
40.000000000000007
20
64.5
10
40.000000000000007
20
50.500000000000014
10
26.000000000000007
20
50.500000000000014
0
LWPOLYLINE
5
109
100
AcDbEntity
8
0
100
AcDbPolyline
90
4
70
1
43
0.0
10
40.000000000000007
20
48.000000000000007
10
26.000000000000007
20
48.000000000000007
10
26.000000000000007
20
34
10
40.000000000000007
20
34
0
LWPOLYLINE
5
110
100
AcDbEntity
8
0
100
AcDbPolyline
90
4
70
1
43
0.0
10
26.000000000000007
20
31.500000000000004
10
40.000000000000007
20
31.500000000000004
10
40.000000000000007
20
17.5
10
26.000000000000007
20
17.5
0
LWPOLYLINE
5
111
100
AcDbEntity
8
0
100
AcDbPolyline
90
4
70
1
43
0.0
10
26
20
15.000000000000002
10
40.000000000000007
20
15.000000000000002
10
40.000000000000007
20
0.99999999999999867
10
26
20
0.99999999999999922
0
LWPOLYLINE
5
112
100
AcDbEntity
8
0
100
AcDbPolyline
90
4
70
1
43
0.0
10
47.499999861717086
20
69.500000138286225
10
61.499999999999993
20
69.499999936011719
10
61.499999861717072
20
55.500000138286261
10
47.499999861717086
20
55.500000138286232
0
LWPOLYLINE
5
113
100
AcDbEntity
8
0
100
AcDbPolyline
90
4
70
1
43
0.0
10
61.499999861717072
20
53.000000000003112
10
47.499999861717072
20
53.000000000003112
10
47.499999861717072
20
39.000000000003112
10
61.499999861717072
20
39.000000000003112
0
LWPOLYLINE
5
114
100
AcDbEntity
8
0
100
AcDbPolyline
90
4
70
1
43
0.0
10
47.499999861717072
20
36.500000000000021
10
61.499999861717072
20
36.500000000000021
10
61.499999861717072
20
22.500000000000018
10
47.499999861717072
20
22.500000000000018
0
LWPOLYLINE
5
115
100
AcDbEntity
8
0
100
AcDbPolyline
90
4
70
1
43
0.0
10
64
20
64.5
10
78
20
64.5
10
78
20
50.500000000000014
10
64
20
50.500000000000014
0
LWPOLYLINE
5
116
100
AcDbEntity
8
0
100
AcDbPolyline
90
4
70
1
43
0.0
10
78
20
48.000000000000007
10
64
20
48.000000000000007
10
64
20
34
10
78
20
34
0
LWPOLYLINE
5
117
100
AcDbEntity
8
0
100
AcDbPolyline
90
4
70
1
43
0.0
10
64
20
31.500000000000007
10
78
20
31.500000000000004
10
78
20
17.5
10
64
20
17.500000000000004
0
LWPOLYLINE
5
118
100
AcDbEntity
8
0
100
AcDbPolyline
90
4
70
1
43
0.0
10
80.499999744292992
20
37.50000025569436
10
80.499999744292992
20
51.500000255694339
10
94.499999744294627
20
51.499998816741417
10
94.499999744294612
20
37.500000255694481
0
LWPOLYLINE
5
119
100
AcDbEntity
8
0
100
AcDbPolyline
90
4
70
1
43
0.0
10
94.499999744293746
20
34.999999999999993
10
80.499999744294627
20
34.999999999999993
10
80.499999744294627
20
20.999999999999986
10
94.499999744294598
20
20.999999999999986
0
LWPOLYLINE
5
120
100
AcDbEntity
8
0
100
AcDbPolyline
90
4
70
1
43
0.0
10
80.499999744293575
20
18.499999999999989
10
94.499999744293603
20
18.500000000000004
10
94.499999744293603
20
4.4999999999999991
10
80.499999744293575
20
4.4999999999999893
0
LWPOLYLINE
5
121
100
AcDbEntity
8
0
100
AcDbPolyline
90
4
70
1
43
0.0
10
110.99999974429372
20
37.999999999999964
10
96.999999744293717
20
37.999999999999964
10
96.999999744293717
20
23.999999999999964
10
110.99999974429373
20
23.999999999999964
0
LWPOLYLINE
5
122
100
AcDbEntity
8
0
100
AcDbPolyline
90
4
70
1
43
0.0
10
96.999999744293717
20
21.500000000000092
10
110.99999974429372
20
21.500000000000039
10
110.99999974429372
20
7.5000000000000346
10
96.999999744293731
20
7.5000000000000924
0
ARC
5
123
100
AcDbEntity
8
0
100
AcDbCircle
10
-27.499999747093753
20
-11.000001154740763
30
0
40
2.0000000000000062
210
0
220
0
230
1
100
AcDbArc
50
180
51
270.00000000000011
0
LINE
5
124
100
AcDbEntity
8
0
100
AcDbLine
10
-27.499999747093749
20
-13.000001154740771
30
0
11
10.000000530196411
21
-13.000001154740765
31
0
0
ARC
5
125
100
AcDbEntity
8
0
100
AcDbCircle
10
10.000000530196411
20
-11.000001335218489
30
0
40
1.9999998195222779
210
0
220
0
230
1
100
AcDbArc
50
-90
51
0
0
LINE
5
126
100
AcDbEntity
8
0
100
AcDbLine
10
12.00000034971869
20
-11.000001335218485
30
0
11
12.000000349718697
21
-5.9999998689640677
31
0
0
ARC
5
127
100
AcDbEntity
8
0
100
AcDbCircle
10
14.000000218682761
20
-5.9999998689640677
30
0
40
1.9999998689640681
210
0
220
0
230
1
100
AcDbArc
50
90.000000000000369
51
180
0
LINE
5
128
100
AcDbEntity
8
0
100
AcDbLine
10
14.000000218682748
20
-3.9999999999999996
30
0
11
113.99999947985725
21
-4.0000000000000115
31
0
0
ARC
5
129
100
AcDbEntity
8
0
100
AcDbCircle
10
113.99999947985727
20
-1.9999998689640444
30
0
40
2.000000131035967
210
0
220
0
230
1
100
AcDbArc
50
-90.000000000000398
51
0
0
LINE
5
130
100
AcDbEntity
8
0
100
AcDbLine
10
-29.49999974709376
20
-11.000001154740762
30
0
11
-29.49999974709376
21
67.5
31
0
0
ARC
5
131
100
AcDbEntity
8
0
100
AcDbCircle
10
-27.499999747093756
20
67.5
30
0
40
2.0000000000000018
210
0
220
-0
230
1
100
AcDbArc
50
90
51
180
0
CIRCLE
5
132
100
AcDbEntity
8
0
100
AcDbCircle
10
-26.49999974709376
20
66.5
30
0
40
1.1000000000000005
210
0
220
0
230
1
0
CIRCLE
5
133
100
AcDbEntity
8
0
100
AcDbCircle
10
-26.49999974709376
20
66.5
30
0
40
2.0000000000000018
210
0
220
0
230
1
0
ARC
5
134
100
AcDbEntity
8
0
100
AcDbCircle
10
113.99999934297001
20
75.000000000000028
30
0
40
1.9999999999999751
210
0
220
-0
230
1
100
AcDbArc
50
0
51
90
0
LINE
5
135
100
AcDbEntity
8
0
100
AcDbLine
10
113.99999934297001
20
77.000000000000014
30
0
11
43.500000059178916
21
77.000000000000014
31
0
0
CIRCLE
5
136
100
AcDbEntity
8
0
100
AcDbCircle
10
112.99999934297
20
74.000000000000014
30
0
40
1.1000000000000056
210
0
220
-0
230
1
0
CIRCLE
5
137
100
AcDbEntity
8
0
100
AcDbCircle
10
44.499996585309837
20
74.000000000000014
30
0
40
1.100000000000003
210
0
220
-0
230
1
0
ARC
5
138
100
AcDbEntity
8
0
100
AcDbCircle
10
43.500000059178916
20
75.000000000000014
30
0
40
2.0000000000000018
210
0
220
-0
230
1
100
AcDbArc
50
90
51
180
0
LWPOLYLINE
5
139
100
AcDbEntity
8
0
100
AcDbPolyline
90
4
70
1
43
0.0
10
94.499999610893155
20
67.999997760987
10
94.499999610893127
20
54.000000389106887
10
80.499999610892857
20
54.000000389107477
10
80.499999610892729
20
68.000000389107456
0
LWPOLYLINE
5
140
100
AcDbEntity
8
0
100
AcDbPolyline
90
4
70
1
43
0.0
10
96.999999402935245
20
54.499999999999751
10
110.99999940293526
20
54.500000000000213
10
110.99999940293526
20
40.500000000000199
10
96.999999402935117
20
40.499999999999744
0
LWPOLYLINE
5
141
100
AcDbEntity
8
0
100
AcDbPolyline
90
4
70
1
43
0.0
10
110.99999940293527
20
57.000000000000014
10
110.99999940293526
20
71.000000000000014
10
96.999999402935259
20
71.000000000000014
10
96.999999402935259
20
57.000000000000014
0
LINE
5
142
100
AcDbEntity
8
0
100
AcDbLine
10
-27.499999747093756
20
69.5
30
0
11
39.500000499973048
21
69.500000948148852
31
0
0
LINE
5
143
100
AcDbEntity
8
0
100
AcDbLine
10
115.99999934297
20
75.000000000000028
30
0
11
115.99999961089324
21
-1.9999998689640395
31
0
0
LINE
5
144
100
AcDbEntity
8
0
100
AcDbLine
10
41.500000059178916
20
75.000000000000014
30
0
11
41.500000471670063
21
71.500001183858174
31
0
0
ARC
5
145
100
AcDbEntity
8
0
100
AcDbCircle
10
39.500000471670091
20
71.500000948148852
30
0
40
1.9999999999999931
210
-0
220
0
230
1
100
AcDbArc
50
-89.999999189180016
51
6.7226204132088284e-06
0
ENDSEC
0
SECTION
2
OBJECTS
0
DICTIONARY
5
C
100
AcDbDictionary
3
ACAD_GROUP
350
D
3
ACAD_MLINESTYLE
350
17
0
DICTIONARY
5
D
100
AcDbDictionary
0
DICTIONARY
5
1A
330
C
100
AcDbDictionary
0
DICTIONARY
5
17
100
AcDbDictionary
0
ENDSEC
0
EOF
